<svg width="41" height="41" viewBox="0 0 41 41" fill="none" xmlns="http://www.w3.org/2000/svg">
<circle cx="20.5" cy="20.5" r="20.5" fill="#E3E9FF"/>
<path fill-rule="evenodd" clip-rule="evenodd" d="M31.0423 12.834C31.0423 11.2462 29.7551 9.95898 28.1673 9.95898H12.834C11.2462 9.95898 9.95898 11.2462 9.95898 12.834V22.4173C9.95898 24.0051 11.2462 25.2923 12.834 25.2923H13.7923C14.3216 25.2923 14.7507 24.8633 14.7507 24.334C14.7507 23.8047 14.3216 23.3757 13.7923 23.3757H12.834C12.3047 23.3757 11.8757 22.9466 11.8757 22.4173L11.8757 16.6673H29.1256V22.4173C29.1256 22.9466 28.6966 23.3757 28.1673 23.3757H27.209C26.6797 23.3757 26.2507 23.8047 26.2507 24.334C26.2507 24.8633 26.6797 25.2923 27.209 25.2923H28.1673C29.7551 25.2923 31.0423 24.0051 31.0423 22.4173V12.834ZM29.1256 14.7507V12.834C29.1256 12.3047 28.6966 11.8757 28.1673 11.8757H12.834C12.3047 11.8757 11.8757 12.3047 11.8757 12.834V14.7507H29.1256Z" fill="#6148F7"/>
<path d="M21.459 30.084C21.459 30.6133 21.0299 31.0423 20.5007 31.0423C19.9714 31.0423 19.5423 30.6133 19.5423 30.084V24.7239L18.3033 25.9628C17.929 26.3372 17.3223 26.3372 16.948 25.9628C16.5738 25.5887 16.5738 24.9818 16.948 24.6077L19.8225 21.7391C20.1969 21.3655 20.8031 21.3658 21.1771 21.7398L24.0513 24.614C24.4256 24.9883 24.4256 25.595 24.0513 25.9694C23.677 26.3435 23.0702 26.3435 22.696 25.9694L21.459 24.7324L21.459 30.084Z" fill="#6148F7"/>
</svg>
