<svg width="41" height="41" viewBox="0 0 41 41" fill="none" xmlns="http://www.w3.org/2000/svg">
<circle cx="20.5" cy="20.5" r="20.5" fill="#DFF6DC"/>
<mask id="mask0_20_6063" style="mask-type:alpha" maskUnits="userSpaceOnUse" x="9" y="9" width="23" height="23">
<rect x="9" y="9" width="23" height="23" fill="#D9D9D9"/>
</mask>
<g mask="url(#mask0_20_6063)">
<path d="M22.4173 21.459C21.6187 21.459 20.9399 21.1795 20.3809 20.6204C19.8218 20.0614 19.5423 19.3826 19.5423 18.584C19.5423 17.7854 19.8218 17.1066 20.3809 16.5475C20.9399 15.9885 21.6187 15.709 22.4173 15.709C23.2159 15.709 23.8947 15.9885 24.4538 16.5475C25.0128 17.1066 25.2923 17.7854 25.2923 18.584C25.2923 19.3826 25.0128 20.0614 24.4538 20.6204C23.8947 21.1795 23.2159 21.459 22.4173 21.459ZM15.709 24.334C15.1819 24.334 14.7307 24.1463 14.3553 23.771C13.98 23.3956 13.7923 22.9444 13.7923 22.4173V14.7507C13.7923 14.2236 13.98 13.7724 14.3553 13.397C14.7307 13.0217 15.1819 12.834 15.709 12.834H29.1257C29.6527 12.834 30.104 13.0217 30.4793 13.397C30.8546 13.7724 31.0423 14.2236 31.0423 14.7507V22.4173C31.0423 22.9444 30.8546 23.3956 30.4793 23.771C30.104 24.1463 29.6527 24.334 29.1257 24.334H15.709ZM17.6257 22.4173H27.209C27.209 21.8902 27.3967 21.439 27.772 21.0637C28.1474 20.6883 28.5986 20.5007 29.1257 20.5007V16.6673C28.5986 16.6673 28.1474 16.4796 27.772 16.1043C27.3967 15.7289 27.209 15.2777 27.209 14.7507H17.6257C17.6257 15.2777 17.438 15.7289 17.0626 16.1043C16.6873 16.4796 16.2361 16.6673 15.709 16.6673V20.5007C16.2361 20.5007 16.6873 20.6883 17.0626 21.0637C17.438 21.439 17.6257 21.8902 17.6257 22.4173ZM28.1673 28.1673H11.8757C11.3486 28.1673 10.8974 27.9796 10.522 27.6043C10.1467 27.2289 9.95898 26.7777 9.95898 26.2507V15.709H11.8757V26.2507H28.1673V28.1673Z" fill="#73AE6E"/>
</g>
</svg>
