<svg width="41" height="41" viewBox="0 0 41 41" fill="none" xmlns="http://www.w3.org/2000/svg">
<circle cx="20.5" cy="20.5" r="20.5" fill="#FAF1D6"/>
<mask id="mask0_20_6065" style="mask-type:alpha" maskUnits="userSpaceOnUse" x="9" y="8" width="24" height="24">
<rect x="9" y="8.99805" width="23.0035" height="23" fill="#D9D9D9"/>
</mask>
<g mask="url(#mask0_20_6065)">
<path d="M13.792 29.123C13.2648 29.123 12.8135 28.9354 12.4381 28.56C12.0627 28.1847 11.875 27.7335 11.875 27.2064V13.7897C11.875 13.2626 12.0627 12.8114 12.4381 12.4361C12.8135 12.0607 13.2648 11.873 13.792 11.873H27.2107C27.7378 11.873 28.1891 12.0607 28.5645 12.4361C28.9399 12.8114 29.1276 13.2626 29.1276 13.7897V27.2064C29.1276 27.7335 28.9399 28.1847 28.5645 28.56C28.1891 28.9354 27.7378 29.123 27.2107 29.123H13.792ZM13.792 16.9762H27.2107V13.7897H13.792V16.9762ZM13.792 22.1033H27.2107V18.8928H13.792V22.1033ZM13.792 27.2064H27.2107V24.0199H13.792V27.2064ZM14.7504 16.3293V14.4126H16.6674V16.3293H14.7504ZM14.7504 21.4564V19.5397H16.6674V21.4564H14.7504ZM14.7504 26.5835V24.6668H16.6674V26.5835H14.7504Z" fill="#FFA412"/>
</g>
</svg>
