<svg width="41" height="41" viewBox="0 0 41 41" fill="none" xmlns="http://www.w3.org/2000/svg">
<circle cx="20.5" cy="20.5" r="20.5" fill="#FFDBC0"/>
<mask id="mask0_20_6066" style="mask-type:alpha" maskUnits="userSpaceOnUse" x="9" y="8" width="24" height="24">
<rect x="9" y="8.99805" width="23.0035" height="23" fill="#D9D9D9"/>
</mask>
<g mask="url(#mask0_20_6066)">
<path d="M13.792 29.123C13.2648 29.123 12.8135 28.9354 12.4381 28.56C12.0627 28.1847 11.875 27.7335 11.875 27.2064V13.7897C11.875 13.2626 12.0627 12.8114 12.4381 12.4361C12.8135 12.0607 13.2648 11.873 13.792 11.873H27.2107C27.7378 11.873 28.1891 12.0607 28.5645 12.4361C28.9399 12.8114 29.1276 13.2626 29.1276 13.7897V16.1855H27.2107V13.7897H13.792V27.2064H27.2107V24.8105H29.1276V27.2064C29.1276 27.7335 28.9399 28.1847 28.5645 28.56C28.1891 28.9354 27.7378 29.123 27.2107 29.123H13.792ZM21.4598 25.2897C20.9326 25.2897 20.4813 25.102 20.1059 24.7267C19.7305 24.3513 19.5428 23.9001 19.5428 23.373V17.623C19.5428 17.096 19.7305 16.6447 20.1059 16.2694C20.4813 15.8941 20.9326 15.7064 21.4598 15.7064H28.1691C28.6963 15.7064 29.1476 15.8941 29.523 16.2694C29.8984 16.6447 30.0861 17.096 30.0861 17.623V23.373C30.0861 23.9001 29.8984 24.3513 29.523 24.7267C29.1476 25.102 28.6963 25.2897 28.1691 25.2897H21.4598ZM28.1691 23.373V17.623H21.4598V23.373H28.1691ZM24.3352 21.9355C24.7346 21.9355 25.0741 21.7958 25.3536 21.5163C25.6332 21.2368 25.7729 20.8974 25.7729 20.498C25.7729 20.0987 25.6332 19.7593 25.3536 19.4798C25.0741 19.2003 24.7346 19.0605 24.3352 19.0605C23.9359 19.0605 23.5964 19.2003 23.3168 19.4798C23.0373 19.7593 22.8975 20.0987 22.8975 20.498C22.8975 20.8974 23.0373 21.2368 23.3168 21.5163C23.5964 21.7958 23.9359 21.9355 24.3352 21.9355Z" fill="#FF6B00"/>
</g>
</svg>
