<svg width="18" height="18" viewBox="0 0 18 18" fill="none" xmlns="http://www.w3.org/2000/svg">
<g id="language">
<mask id="mask0_196_12919" style="mask-type:alpha" maskUnits="userSpaceOnUse" x="0" y="0" width="18" height="18">
<rect id="Bounding box" width="18" height="18" fill="#D9D9D9"/>
</mask>
<g mask="url(#mask0_196_12919)">
<path id="language_2" d="M9 16.5C7.975 16.5 7.00625 16.3031 6.09375 15.9094C5.18125 15.5156 4.38437 14.9781 3.70312 14.2969C3.02187 13.6156 2.48437 12.8188 2.09062 11.9063C1.69687 10.9938 1.5 10.025 1.5 9.00001C1.5 7.96251 1.69687 6.99064 2.09062 6.08439C2.48437 5.17814 3.02187 4.38439 3.70312 3.70314C4.38437 3.02189 5.18125 2.48439 6.09375 2.09064C7.00625 1.69689 7.975 1.50002 9 1.50002C10.0375 1.50002 11.0094 1.69689 11.9156 2.09064C12.8219 2.48439 13.6156 3.02189 14.2969 3.70314C14.9781 4.38439 15.5156 5.17814 15.9094 6.08439C16.3031 6.99064 16.5 7.96251 16.5 9.00001C16.5 10.025 16.3031 10.9938 15.9094 11.9063C15.5156 12.8188 14.9781 13.6156 14.2969 14.2969C13.6156 14.9781 12.8219 15.5156 11.9156 15.9094C11.0094 16.3031 10.0375 16.5 9 16.5ZM9 14.9625C9.325 14.5125 9.60625 14.0438 9.84375 13.5563C10.0812 13.0688 10.275 12.55 10.425 12H7.575C7.725 12.55 7.91875 13.0688 8.15625 13.5563C8.39375 14.0438 8.675 14.5125 9 14.9625ZM7.05 14.6625C6.825 14.25 6.62812 13.8219 6.45937 13.3781C6.29062 12.9344 6.15 12.475 6.0375 12H3.825C4.1875 12.625 4.64062 13.1688 5.18437 13.6313C5.72812 14.0938 6.35 14.4375 7.05 14.6625ZM10.95 14.6625C11.65 14.4375 12.2719 14.0938 12.8156 13.6313C13.3594 13.1688 13.8125 12.625 14.175 12H11.9625C11.85 12.475 11.7094 12.9344 11.5406 13.3781C11.3719 13.8219 11.175 14.25 10.95 14.6625ZM3.1875 10.5H5.7375C5.7 10.25 5.67187 10.0031 5.65312 9.75939C5.63437 9.51564 5.625 9.26251 5.625 9.00001C5.625 8.73751 5.63437 8.48439 5.65312 8.24064C5.67187 7.99689 5.7 7.75001 5.7375 7.50001H3.1875C3.125 7.75001 3.07812 7.99689 3.04687 8.24064C3.01562 8.48439 3 8.73751 3 9.00001C3 9.26251 3.01562 9.51564 3.04687 9.75939C3.07812 10.0031 3.125 10.25 3.1875 10.5ZM7.2375 10.5H10.7625C10.8 10.25 10.8281 10.0031 10.8469 9.75939C10.8656 9.51564 10.875 9.26251 10.875 9.00001C10.875 8.73751 10.8656 8.48439 10.8469 8.24064C10.8281 7.99689 10.8 7.75001 10.7625 7.50001H7.2375C7.2 7.75001 7.17187 7.99689 7.15312 8.24064C7.13437 8.48439 7.125 8.73751 7.125 9.00001C7.125 9.26251 7.13437 9.51564 7.15312 9.75939C7.17187 10.0031 7.2 10.25 7.2375 10.5ZM12.2625 10.5H14.8125C14.875 10.25 14.9219 10.0031 14.9531 9.75939C14.9844 9.51564 15 9.26251 15 9.00001C15 8.73751 14.9844 8.48439 14.9531 8.24064C14.9219 7.99689 14.875 7.75001 14.8125 7.50001H12.2625C12.3 7.75001 12.3281 7.99689 12.3469 8.24064C12.3656 8.48439 12.375 8.73751 12.375 9.00001C12.375 9.26251 12.3656 9.51564 12.3469 9.75939C12.3281 10.0031 12.3 10.25 12.2625 10.5ZM11.9625 6.00001H14.175C13.8125 5.37502 13.3594 4.83126 12.8156 4.36877C12.2719 3.90627 11.65 3.56252 10.95 3.33752C11.175 3.75002 11.3719 4.17814 11.5406 4.62189C11.7094 5.06564 11.85 5.52501 11.9625 6.00001ZM7.575 6.00001H10.425C10.275 5.45001 10.0812 4.93126 9.84375 4.44376C9.60625 3.95626 9.325 3.48752 9 3.03752C8.675 3.48752 8.39375 3.95626 8.15625 4.44376C7.91875 4.93126 7.725 5.45001 7.575 6.00001ZM3.825 6.00001H6.0375C6.15 5.52501 6.29062 5.06564 6.45937 4.62189C6.62812 4.17814 6.825 3.75002 7.05 3.33752C6.35 3.56252 5.72812 3.90627 5.18437 4.36877C4.64062 4.83126 4.1875 5.37502 3.825 6.00001Z" fill="#73AE6E"/>
</g>
</g>
</svg>
