<svg width="52" height="52" viewBox="0 0 52 52" fill="none" xmlns="http://www.w3.org/2000/svg">
<g id="Group 1629">
<g id="Ellipse 5" filter="url(#filter0_d_196_11333)">
<circle cx="26" cy="26" r="14" fill="#E3E9FF"/>
</g>
<g id="download">
<mask id="mask0_196_11333" style="mask-type:alpha" maskUnits="userSpaceOnUse" x="16" y="16" width="20" height="20">
<rect id="Bounding box" x="16.6666" y="16.6665" width="18.6667" height="18.6667" fill="#D9D9D9"/>
</mask>
<g mask="url(#mask0_196_11333)">
<path id="download_2" d="M25.9999 28.7806C25.8962 28.7806 25.7989 28.7644 25.7082 28.732C25.6175 28.6996 25.5332 28.6445 25.4554 28.5667L22.6554 25.7667C22.4999 25.6112 22.4253 25.4297 22.4318 25.2223C22.4383 25.0149 22.5128 24.8334 22.6554 24.6778C22.811 24.5223 22.9957 24.4413 23.2096 24.4348C23.4235 24.4283 23.6082 24.5028 23.7638 24.6584L25.2221 26.1167V20.5556C25.2221 20.3352 25.2966 20.1505 25.4457 20.0014C25.5948 19.8524 25.7795 19.7778 25.9999 19.7778C26.2202 19.7778 26.405 19.8524 26.554 20.0014C26.7031 20.1505 26.7776 20.3352 26.7776 20.5556V26.1167L28.236 24.6584C28.3915 24.5028 28.5763 24.4283 28.7901 24.4348C29.004 24.4413 29.1888 24.5223 29.3443 24.6778C29.4869 24.8334 29.5614 25.0149 29.5679 25.2223C29.5744 25.4297 29.4999 25.6112 29.3443 25.7667L26.5443 28.5667C26.4665 28.6445 26.3823 28.6996 26.2915 28.732C26.2008 28.7644 26.1036 28.7806 25.9999 28.7806ZM21.3332 32.2223C20.9054 32.2223 20.5392 32.07 20.2346 31.7653C19.93 31.4607 19.7776 31.0945 19.7776 30.6667V29.1112C19.7776 28.8908 19.8522 28.7061 20.0013 28.557C20.1503 28.4079 20.3351 28.3334 20.5554 28.3334C20.7758 28.3334 20.9605 28.4079 21.1096 28.557C21.2587 28.7061 21.3332 28.8908 21.3332 29.1112V30.6667H30.6665V29.1112C30.6665 28.8908 30.7411 28.7061 30.8901 28.557C31.0392 28.4079 31.2239 28.3334 31.4443 28.3334C31.6647 28.3334 31.8494 28.4079 31.9985 28.557C32.1476 28.7061 32.2221 28.8908 32.2221 29.1112V30.6667C32.2221 31.0945 32.0698 31.4607 31.7651 31.7653C31.4605 32.07 31.0943 32.2223 30.6665 32.2223H21.3332Z" fill="#6148F7"/>
</g>
</g>
</g>
<defs>
<filter id="filter0_d_196_11333" x="0" y="0" width="52" height="52" filterUnits="userSpaceOnUse" color-interpolation-filters="sRGB">
<feFlood flood-opacity="0" result="BackgroundImageFix"/>
<feColorMatrix in="SourceAlpha" type="matrix" values="0 0 0 0 0 0 0 0 0 0 0 0 0 0 0 0 0 0 127 0" result="hardAlpha"/>
<feMorphology radius="6" operator="erode" in="SourceAlpha" result="effect1_dropShadow_196_11333"/>
<feOffset/>
<feGaussianBlur stdDeviation="9"/>
<feComposite in2="hardAlpha" operator="out"/>
<feColorMatrix type="matrix" values="0 0 0 0 0 0 0 0 0 0 0 0 0 0 0 0 0 0 0.15 0"/>
<feBlend mode="normal" in2="BackgroundImageFix" result="effect1_dropShadow_196_11333"/>
<feBlend mode="normal" in="SourceGraphic" in2="effect1_dropShadow_196_11333" result="shape"/>
</filter>
</defs>
</svg>
