<svg width="20" height="20" viewBox="0 0 20 20" fill="none" xmlns="http://www.w3.org/2000/svg">
<g id="Group 1171275335">
<rect id="Rectangle 2851" x="0.5" y="0.5" width="19" height="19" rx="9.5" fill="#DFF6DC" stroke="#73AE6E"/>
<path id="i" d="M12.8183 3.63635C13.0265 3.63635 13.2149 3.70357 13.3834 3.83802C13.552 3.96499 13.6363 4.14798 13.6363 4.38699C13.6363 4.61853 13.5668 4.84261 13.428 5.05921C13.2991 5.26834 13.1355 5.45507 12.9372 5.61939C12.7389 5.78371 12.5158 5.91441 12.268 6.01151C12.03 6.10861 11.8069 6.15716 11.5987 6.15716C11.5095 6.15716 11.4103 6.14969 11.3012 6.13475C11.2021 6.11234 11.1079 6.075 11.0187 6.02272C10.9294 5.96296 10.8551 5.88454 10.7956 5.78744C10.7361 5.69034 10.7063 5.5671 10.7063 5.41772C10.7063 5.20112 10.7658 4.98825 10.8848 4.77912C11.0137 4.56252 11.1773 4.37205 11.3756 4.20774C11.5838 4.03595 11.8119 3.89777 12.0598 3.7932C12.3076 3.68864 12.5605 3.63635 12.8183 3.63635ZM12.0895 7.64724C11.9804 7.75927 11.8466 7.93853 11.6879 8.18501C11.5392 8.43149 11.3756 8.72651 11.1971 9.07009C11.0187 9.4062 10.8352 9.77218 10.6468 10.168C10.4585 10.5639 10.2701 10.9672 10.0817 11.378C9.90322 11.7814 9.73466 12.1772 9.57602 12.5656C9.41738 12.9465 9.27361 13.2976 9.14471 13.6187C9.02573 13.9324 8.93154 14.2013 8.86213 14.4254C8.79273 14.642 8.75802 14.7839 8.75802 14.8511C8.75802 14.9931 8.83239 15.064 8.98111 15.064C9.10009 15.0565 9.26865 15.0155 9.48678 14.9408C9.70491 14.8661 9.95279 14.754 10.2304 14.6047C10.518 14.4553 10.8303 14.2648 11.1674 14.0333C11.5045 13.8017 11.8515 13.5254 12.2085 13.2042L12.5357 13.4283C12.0994 13.8466 11.6235 14.2349 11.1079 14.5935C10.6022 14.9445 10.0966 15.2545 9.59089 15.5234C9.09514 15.7848 8.62417 15.9902 8.17799 16.1396C7.73181 16.2889 7.35999 16.3636 7.06254 16.3636C6.98322 16.3636 6.90886 16.3412 6.83945 16.2964C6.77004 16.2591 6.71055 16.2217 6.66098 16.1844C6.49242 16.035 6.40319 15.9043 6.39327 15.7922C6.37344 15.6802 6.36353 15.5644 6.36353 15.4449C6.36353 15.2731 6.42797 14.9856 6.55687 14.5823C6.67585 14.1789 6.82954 13.7233 7.01792 13.2154C7.20631 12.7001 7.41948 12.1623 7.65745 11.6021C7.88549 11.0419 8.10858 10.5228 8.32672 10.0448C8.55476 9.56678 8.75802 9.15972 8.93649 8.82361C9.12488 8.4875 9.26865 8.28584 9.3678 8.21862C9.5661 8.08418 9.81398 7.97587 10.1114 7.89371C10.4089 7.80409 10.7014 7.73686 10.9889 7.69205C11.3161 7.63977 11.6631 7.60242 12.03 7.58001L12.0895 7.64724Z" fill="#73AE6E"/>
</g>
</svg>
