<svg width="25" height="25" viewBox="0 0 25 25" fill="none" xmlns="http://www.w3.org/2000/svg">
<g id="display">
<path id="icon" fill-rule="evenodd" clip-rule="evenodd" d="M23.9275 4.32922C23.9275 2.67237 22.5843 1.32922 20.9275 1.32922H4.92749C3.27064 1.32922 1.92749 2.67237 1.92749 4.32922V15.3292C1.92749 16.9861 3.27064 18.3292 4.92749 18.3292H11.9275V21.3292H6.92749C6.37521 21.3292 5.92749 21.7769 5.92749 22.3292C5.92749 22.8815 6.37521 23.3292 6.92749 23.3292H18.9275C19.4798 23.3292 19.9275 22.8815 19.9275 22.3292C19.9275 21.7769 19.4798 21.3292 18.9275 21.3292H13.9275V18.3292H20.9275C22.5843 18.3292 23.9275 16.9861 23.9275 15.3292V4.32922ZM21.9275 4.32922C21.9275 3.77694 21.4798 3.32922 20.9275 3.32922H4.92749C4.37521 3.32922 3.92749 3.77694 3.92749 4.32922V15.3292C3.92749 15.8815 4.37521 16.3292 4.92749 16.3292H20.9275C21.4798 16.3292 21.9275 15.8815 21.9275 15.3292V4.32922Z" fill="#6A6A6A"/>
</g>
</svg>
