<svg width="25" height="25" viewBox="0 0 25 25" fill="none" xmlns="http://www.w3.org/2000/svg">
<g id="truck">
<path id="icon" fill-rule="evenodd" clip-rule="evenodd" d="M3.62695 3.42786C1.9701 3.42786 0.626953 4.771 0.626953 6.42786V15.4279C0.626953 16.74 1.46932 17.8554 2.64276 18.2627C2.81131 20.0386 4.30689 21.4279 6.12695 21.4279C7.89019 21.4279 9.34889 20.124 9.59151 18.4279H15.6624C15.905 20.124 17.3637 21.4279 19.127 21.4279C20.947 21.4279 22.4426 20.0386 22.6111 18.2627C23.7846 17.8554 24.627 16.74 24.627 15.4279V11.1793C24.627 10.4527 24.3632 9.75069 23.8847 9.20381L21.4771 6.45234C20.9075 5.8013 20.0845 5.42786 19.2194 5.42786H17.4562C17.0444 4.26266 15.9332 3.42786 14.627 3.42786H3.62695ZM4.62695 17.864V17.9918C4.66043 18.7913 5.31919 19.4292 6.12695 19.4292C6.93471 19.4292 7.59348 18.7913 7.62695 17.9918V17.864C7.59348 17.0644 6.93471 16.4265 6.12695 16.4265C5.31919 16.4265 4.66043 17.0644 4.62695 17.864ZM6.12695 14.4279C7.52315 14.4279 8.7284 15.2454 9.29014 16.4279H15.9638C16.5255 15.2454 17.7308 14.4279 19.127 14.4279C20.4514 14.4279 21.604 15.1635 22.1985 16.2485C22.4575 16.0678 22.627 15.7676 22.627 15.4279V11.4279H17.627C16.5224 11.4279 15.627 10.5324 15.627 9.42786V6.42786C15.627 5.87557 15.1792 5.42786 14.627 5.42786H3.62695C3.07467 5.42786 2.62695 5.87557 2.62695 6.42786V15.4279C2.62695 15.7676 2.7964 16.0678 3.0554 16.2485C3.64987 15.1635 4.8025 14.4279 6.12695 14.4279ZM17.627 7.42786V8.42786C17.627 8.98014 18.0747 9.42786 18.627 9.42786H21.4232L19.972 7.76935C19.7821 7.55234 19.5078 7.42786 19.2194 7.42786H17.627ZM17.627 17.864V17.9918C17.6604 18.7913 18.3192 19.4292 19.127 19.4292C19.9347 19.4292 20.5935 18.7913 20.627 17.9918V17.864C20.5935 17.0644 19.9347 16.4265 19.127 16.4265C18.3192 16.4265 17.6604 17.0644 17.627 17.864Z" fill="#6A6A6A"/>
</g>
</svg>
