<svg width="25" height="25" viewBox="0 0 25 25" fill="none" xmlns="http://www.w3.org/2000/svg">
<g id="box">
<path id="icon" fill-rule="evenodd" clip-rule="evenodd" d="M13.2098 1.84984C12.9077 1.68205 12.5405 1.68205 12.2385 1.84984L3.23848 6.84984L3.23142 6.86184L3.21699 6.86202C2.91162 7.0417 2.72412 7.36968 2.72412 7.724V17.7239C2.72412 18.0871 2.92101 18.4217 3.23848 18.598L12.2263 23.5913C12.53 23.7656 12.9032 23.7685 13.2098 23.5982L22.2098 18.5982C22.5272 18.4218 22.7241 18.0872 22.7241 17.724V7.724C22.7241 7.36968 22.5366 7.04181 22.2313 6.86213C22.2238 6.85772 22.2162 6.85342 22.2086 6.84922L13.2098 1.84984ZM5.78335 7.72394L12.7242 11.58L15.2096 10.1992L8.46708 6.23298L5.78335 7.72394ZM17.2383 9.07216L19.665 7.724L12.7241 3.86796L10.4957 5.10595L17.2383 9.07216ZM4.72412 17.1355V9.42351L11.7241 13.3124V21.0244L4.72412 17.1355ZM13.7241 21.0245V13.3124L20.7241 9.42351V17.1356L13.7241 21.0245Z" fill="#6A6A6A"/>
</g>
</svg>
