<svg width="13" height="13" viewBox="0 0 13 13" fill="none" xmlns="http://www.w3.org/2000/svg">
<path d="M9.07708 9.57304L8.82917 9.32512C8.74167 9.23762 8.63715 9.19387 8.51563 9.19387C8.3941 9.19387 8.28958 9.23762 8.20208 9.32512C8.11458 9.41262 8.07083 9.51471 8.07083 9.63137C8.07083 9.74804 8.11458 9.85012 8.20208 9.93762L8.77083 10.5064C8.85833 10.5939 8.96042 10.6376 9.07708 10.6376C9.19375 10.6376 9.29583 10.5939 9.38333 10.5064L10.7979 9.12096C10.8854 9.03346 10.9292 8.92894 10.9292 8.80741C10.9292 8.68589 10.8854 8.58137 10.7979 8.49387C10.7104 8.40637 10.6059 8.36262 10.4844 8.36262C10.3628 8.36262 10.2583 8.40637 10.1708 8.49387L9.07708 9.57304ZM3.08333 4.25012H8.91667C9.08195 4.25012 9.22049 4.19422 9.33229 4.08241C9.4441 3.97061 9.5 3.83207 9.5 3.66679C9.5 3.50151 9.4441 3.36297 9.33229 3.25116C9.22049 3.13936 9.08195 3.08346 8.91667 3.08346H3.08333C2.91806 3.08346 2.77951 3.13936 2.66771 3.25116C2.5559 3.36297 2.5 3.50151 2.5 3.66679C2.5 3.83207 2.5559 3.97061 2.66771 4.08241C2.77951 4.19422 2.91806 4.25012 3.08333 4.25012ZM9.5 12.4168C8.69306 12.4168 8.00521 12.1324 7.43646 11.5637C6.86771 10.9949 6.58333 10.3071 6.58333 9.50012C6.58333 8.69318 6.86771 8.00533 7.43646 7.43658C8.00521 6.86783 8.69306 6.58346 9.5 6.58346C10.3069 6.58346 10.9948 6.86783 11.5635 7.43658C12.1323 8.00533 12.4167 8.69318 12.4167 9.50012C12.4167 10.3071 12.1323 10.9949 11.5635 11.5637C10.9948 12.1324 10.3069 12.4168 9.5 12.4168ZM0.75 11.7605V1.91679C0.75 1.59596 0.864236 1.3213 1.09271 1.09283C1.32118 0.864358 1.59583 0.750122 1.91667 0.750122H10.0833C10.4042 0.750122 10.6788 0.864358 10.9073 1.09283C11.1358 1.3213 11.25 1.59596 11.25 1.91679V5.81054C11.0653 5.72304 10.8757 5.65012 10.6813 5.59179C10.4868 5.53346 10.2875 5.48971 10.0833 5.46054V1.91679H1.91667V10.1126H5.46042C5.50903 10.414 5.58438 10.7008 5.68646 10.973C5.78854 11.2453 5.92222 11.5029 6.0875 11.746C6.03889 11.7557 5.98785 11.7484 5.93438 11.7241C5.8809 11.6998 5.83472 11.6682 5.79583 11.6293L5.32917 11.1626C5.27083 11.1043 5.20278 11.0751 5.125 11.0751C5.04722 11.0751 4.97917 11.1043 4.92083 11.1626L4.45417 11.6293C4.39583 11.6876 4.32778 11.7168 4.25 11.7168C4.17222 11.7168 4.10417 11.6876 4.04583 11.6293L3.57917 11.1626C3.52083 11.1043 3.45278 11.0751 3.375 11.0751C3.29722 11.0751 3.22917 11.1043 3.17083 11.1626L2.70417 11.6293C2.64583 11.6876 2.57778 11.7168 2.5 11.7168C2.42222 11.7168 2.35417 11.6876 2.29583 11.6293L1.82917 11.1626C1.77083 11.1043 1.70278 11.0751 1.625 11.0751C1.54722 11.0751 1.47917 11.1043 1.42083 11.1626L0.954167 11.6293L0.75 11.7605ZM3.08333 8.91679H5.46042C5.48958 8.71262 5.53333 8.51332 5.59167 8.31887C5.65 8.12443 5.72292 7.93484 5.81042 7.75012H3.08333C2.91806 7.75012 2.77951 7.80603 2.66771 7.91783C2.5559 8.02964 2.5 8.16818 2.5 8.33346C2.5 8.49873 2.5559 8.63728 2.66771 8.74908C2.77951 8.86089 2.91806 8.91679 3.08333 8.91679ZM3.08333 6.58346H6.64167C7.01111 6.22373 7.44132 5.93936 7.93229 5.73033C8.42326 5.5213 8.94583 5.41679 9.5 5.41679H3.08333C2.91806 5.41679 2.77951 5.47269 2.66771 5.5845C2.5559 5.6963 2.5 5.83484 2.5 6.00012C2.5 6.1654 2.5559 6.30394 2.66771 6.41575C2.77951 6.52755 2.91806 6.58346 3.08333 6.58346Z" fill="#73AE6E"/>
</svg>
