<svg width="41" height="41" viewBox="0 0 41 41" fill="none" xmlns="http://www.w3.org/2000/svg">
<circle cx="20.5" cy="20.5" r="20.5" fill="#C8C8C8"/>
<mask id="mask0_84_9586" style="mask-type:alpha" maskUnits="userSpaceOnUse" x="9" y="9" width="23" height="23">
<rect x="9" y="9" width="23" height="23" fill="#D9D9D9"/>
</mask>
<g mask="url(#mask0_84_9586)">
<path d="M20.5 30.0822C19.3021 30.0822 18.18 29.8546 17.1339 29.3994C16.0877 28.9442 15.1773 28.3292 14.4026 27.5546C13.628 26.7799 13.013 25.8695 12.5578 24.8233C12.1026 23.7772 11.875 22.6551 11.875 21.4572C11.875 21.1857 11.9668 20.9581 12.1505 20.7744C12.3342 20.5907 12.5618 20.4989 12.8333 20.4989C13.1049 20.4989 13.3325 20.5907 13.5161 20.7744C13.6998 20.9581 13.7917 21.1857 13.7917 21.4572C13.7917 23.3259 14.4425 24.9112 15.7443 26.2129C17.046 27.5147 18.6312 28.1655 20.5 28.1655C22.3687 28.1655 23.954 27.5147 25.2557 26.2129C26.5575 24.9112 27.2083 23.3259 27.2083 21.4572C27.2083 19.5884 26.5575 18.0032 25.2557 16.7015C23.954 15.3997 22.3687 14.7489 20.5 14.7489H20.3562L21.1708 15.5634C21.3625 15.7551 21.4543 15.9787 21.4464 16.2343C21.4384 16.4898 21.3465 16.7134 21.1708 16.9051C20.9792 17.0968 20.7516 17.1966 20.488 17.2046C20.2245 17.2126 19.9969 17.1207 19.8052 16.9291L17.3375 14.4614C17.1458 14.2697 17.05 14.0461 17.05 13.7905C17.05 13.535 17.1458 13.3114 17.3375 13.1197L19.8052 10.652C19.9969 10.4603 20.2245 10.3685 20.488 10.3765C20.7516 10.3844 20.9792 10.4843 21.1708 10.6759C21.3465 10.8676 21.4384 11.0912 21.4464 11.3468C21.4543 11.6023 21.3625 11.8259 21.1708 12.0176L20.3562 12.8322H20.5C21.6979 12.8322 22.82 13.0598 23.8661 13.515C24.9123 13.9702 25.8227 14.5851 26.5974 15.3598C27.372 16.1344 27.987 17.0449 28.4422 18.091C28.8974 19.1372 29.125 20.2593 29.125 21.4572C29.125 22.6551 28.8974 23.7772 28.4422 24.8233C27.987 25.8695 27.372 26.7799 26.5974 27.5546C25.8227 28.3292 24.9123 28.9442 23.8661 29.3994C22.82 29.8546 21.6979 30.0822 20.5 30.0822Z" fill="#6A6A6A"/>
</g>
</svg>
