<svg width="41" height="41" viewBox="0 0 41 41" fill="none" xmlns="http://www.w3.org/2000/svg">
<circle cx="20.5" cy="20.5" r="20.5" fill="#FAF1D6"/>
<mask id="mask0_84_9585" style="mask-type:alpha" maskUnits="userSpaceOnUse" x="9" y="9" width="23" height="24">
<rect x="9" y="9.00012" width="23" height="23" fill="#D9D9D9"/>
</mask>
<g mask="url(#mask0_84_9585)">
<path d="M19.5417 11.1804C19.8451 11.0047 20.1646 10.9169 20.5 10.9169C20.8354 10.9169 21.1549 11.0047 21.4583 11.1804L28.1667 15.0377C28.4701 15.2134 28.7057 15.445 28.8734 15.7325C29.0411 16.02 29.125 16.3394 29.125 16.6908V20.7637C28.8375 20.5561 28.534 20.3764 28.2146 20.2247C27.8951 20.0729 27.5597 19.9412 27.2083 19.8294V17.721L23.7583 19.7096C22.8639 19.9332 22.0533 20.3125 21.3266 20.8476C20.5998 21.3827 20.0049 22.0335 19.5417 22.8002V21.0512L13.7917 17.721V24.2856L18.6312 27.0887C18.6951 27.5999 18.8149 28.091 18.9906 28.5622C19.1663 29.0334 19.3899 29.4766 19.6615 29.8919C19.6295 29.8759 19.6095 29.8639 19.6016 29.8559C19.5936 29.8479 19.5736 29.836 19.5417 29.82L12.8333 25.9627C12.5299 25.787 12.2943 25.5554 12.1266 25.2679C11.9589 24.9804 11.875 24.661 11.875 24.3096V16.6908C11.875 16.3394 11.9589 16.02 12.1266 15.7325C12.2943 15.445 12.5299 15.2134 12.8333 15.0377L19.5417 11.1804ZM20.5 12.8335L14.8219 16.1158L20.5 19.3981L26.1781 16.1158L20.5 12.8335ZM25.2917 31.0419C23.966 31.0419 22.8359 30.5747 21.9016 29.6403C20.9672 28.7059 20.5 27.5759 20.5 26.2502C20.5 24.9245 20.9672 23.7945 21.9016 22.8601C22.8359 21.9257 23.966 21.4585 25.2917 21.4585C26.6174 21.4585 27.7474 21.9257 28.6818 22.8601C29.6161 23.7945 30.0833 24.9245 30.0833 26.2502C30.0833 27.5759 29.6161 28.7059 28.6818 29.6403C27.7474 30.5747 26.6174 31.0419 25.2917 31.0419ZM25.7708 26.0585V23.3752H24.8125V26.4419L26.8729 28.5023L27.5437 27.8315L25.7708 26.0585Z" fill="#FFA412"/>
</g>
</svg>
