<svg width="41" height="41" viewBox="0 0 41 41" fill="none" xmlns="http://www.w3.org/2000/svg">
<circle cx="20.5" cy="20.5" r="20.5" fill="#DFF6DC"/>
<mask id="mask0_84_9580" style="mask-type:alpha" maskUnits="userSpaceOnUse" x="9" y="9" width="23" height="23">
<rect x="9" y="9" width="23" height="23" fill="#D9D9D9"/>
</mask>
<g mask="url(#mask0_84_9580)">
<path d="M25.5552 26.37L25.1479 25.9627C25.0042 25.819 24.8325 25.7471 24.6328 25.7471C24.4332 25.7471 24.2615 25.819 24.1177 25.9627C23.974 26.1065 23.9021 26.2742 23.9021 26.4659C23.9021 26.6575 23.974 26.8252 24.1177 26.969L25.0521 27.9034C25.1958 28.0471 25.3635 28.119 25.5552 28.119C25.7469 28.119 25.9146 28.0471 26.0583 27.9034L28.3823 25.6273C28.526 25.4836 28.5979 25.3119 28.5979 25.1122C28.5979 24.9126 28.526 24.7409 28.3823 24.5971C28.2385 24.4534 28.0668 24.3815 27.8672 24.3815C27.6675 24.3815 27.4958 24.4534 27.3521 24.5971L25.5552 26.37ZM15.7083 17.6252H25.2917C25.5632 17.6252 25.7908 17.5334 25.9745 17.3497C26.1582 17.166 26.25 16.9384 26.25 16.6669C26.25 16.3954 26.1582 16.1678 25.9745 15.9841C25.7908 15.8004 25.5632 15.7086 25.2917 15.7086H15.7083C15.4368 15.7086 15.2092 15.8004 15.0255 15.9841C14.8418 16.1678 14.75 16.3954 14.75 16.6669C14.75 16.9384 14.8418 17.166 15.0255 17.3497C15.2092 17.5334 15.4368 17.6252 15.7083 17.6252ZM26.25 31.0419C24.9243 31.0419 23.7943 30.5747 22.8599 29.6404C21.9255 28.706 21.4583 27.5759 21.4583 26.2502C21.4583 24.9246 21.9255 23.7945 22.8599 22.8601C23.7943 21.9258 24.9243 21.4586 26.25 21.4586C27.5757 21.4586 28.7057 21.9258 29.6401 22.8601C30.5745 23.7945 31.0417 24.9246 31.0417 26.2502C31.0417 27.5759 30.5745 28.706 29.6401 29.6404C28.7057 30.5747 27.5757 31.0419 26.25 31.0419ZM11.875 29.9638V13.7919C11.875 13.2648 12.0627 12.8136 12.438 12.4383C12.8134 12.0629 13.2646 11.8752 13.7917 11.8752H27.2083C27.7354 11.8752 28.1866 12.0629 28.562 12.4383C28.9373 12.8136 29.125 13.2648 29.125 13.7919V20.1888C28.8215 20.045 28.5101 19.9252 28.1906 19.8294C27.8712 19.7336 27.5438 19.6617 27.2083 19.6138V13.7919H13.7917V27.2565H19.6135C19.6934 27.7516 19.8172 28.2228 19.9849 28.67C20.1526 29.1173 20.3722 29.5405 20.6438 29.9398C20.5639 29.9558 20.48 29.9438 20.3922 29.9039C20.3043 29.864 20.2285 29.812 20.1646 29.7482L19.3979 28.9815C19.3021 28.8857 19.1903 28.8377 19.0625 28.8377C18.9347 28.8377 18.8229 28.8857 18.7271 28.9815L17.9604 29.7482C17.8646 29.844 17.7528 29.8919 17.625 29.8919C17.4972 29.8919 17.3854 29.844 17.2896 29.7482L16.5229 28.9815C16.4271 28.8857 16.3153 28.8377 16.1875 28.8377C16.0597 28.8377 15.9479 28.8857 15.8521 28.9815L15.0854 29.7482C14.9896 29.844 14.8778 29.8919 14.75 29.8919C14.6222 29.8919 14.5104 29.844 14.4146 29.7482L13.6479 28.9815C13.5521 28.8857 13.4403 28.8377 13.3125 28.8377C13.1847 28.8377 13.0729 28.8857 12.9771 28.9815L12.2104 29.7482L11.875 29.9638ZM15.7083 25.2919H19.6135C19.6615 24.9565 19.7333 24.6291 19.8292 24.3096C19.925 23.9902 20.0448 23.6787 20.1885 23.3752H15.7083C15.4368 23.3752 15.2092 23.4671 15.0255 23.6508C14.8418 23.8344 14.75 24.062 14.75 24.3336C14.75 24.6051 14.8418 24.8327 15.0255 25.0164C15.2092 25.2001 15.4368 25.2919 15.7083 25.2919ZM15.7083 21.4586H21.5542C22.1611 20.8676 22.8679 20.4004 23.6745 20.057C24.4811 19.7136 25.3396 19.5419 26.25 19.5419H15.7083C15.4368 19.5419 15.2092 19.6338 15.0255 19.8174C14.8418 20.0011 14.75 20.2287 14.75 20.5002C14.75 20.7718 14.8418 20.9994 15.0255 21.1831C15.2092 21.3667 15.4368 21.4586 15.7083 21.4586Z" fill="#73AE6E"/>
</g>
</svg>
