<svg width="12" height="12" viewBox="0 0 12 12" fill="none" xmlns="http://www.w3.org/2000/svg">
<path d="M2.5 11.8333C2.01389 11.8333 1.60069 11.6632 1.26042 11.3229C0.920139 10.9826 0.75 10.5694 0.75 10.0833V8.33329H2.5V0.166626L3.375 1.04163L4.25 0.166626L5.125 1.04163L6 0.166626L6.875 1.04163L7.75 0.166626L8.625 1.04163L9.5 0.166626L10.375 1.04163L11.25 0.166626V10.0833C11.25 10.5694 11.0799 10.9826 10.7396 11.3229C10.3993 11.6632 9.98611 11.8333 9.5 11.8333H2.5ZM9.5 10.6666C9.66528 10.6666 9.80382 10.6107 9.91562 10.4989C10.0274 10.3871 10.0833 10.2486 10.0833 10.0833V1.91663H3.66667V8.33329H8.91667V10.0833C8.91667 10.2486 8.97257 10.3871 9.08438 10.4989C9.19618 10.6107 9.33472 10.6666 9.5 10.6666ZM4.25 4.24996V3.08329H7.75V4.24996H4.25ZM4.25 5.99996V4.83329H7.75V5.99996H4.25ZM8.91667 4.24996C8.75139 4.24996 8.61285 4.19406 8.50104 4.08225C8.38924 3.97045 8.33333 3.8319 8.33333 3.66663C8.33333 3.50135 8.38924 3.36281 8.50104 3.251C8.61285 3.1392 8.75139 3.08329 8.91667 3.08329C9.08194 3.08329 9.22049 3.1392 9.33229 3.251C9.4441 3.36281 9.5 3.50135 9.5 3.66663C9.5 3.8319 9.4441 3.97045 9.33229 4.08225C9.22049 4.19406 9.08194 4.24996 8.91667 4.24996ZM8.91667 5.99996C8.75139 5.99996 8.61285 5.94406 8.50104 5.83225C8.38924 5.72045 8.33333 5.5819 8.33333 5.41663C8.33333 5.25135 8.38924 5.11281 8.50104 5.001C8.61285 4.8892 8.75139 4.83329 8.91667 4.83329C9.08194 4.83329 9.22049 4.8892 9.33229 5.001C9.4441 5.11281 9.5 5.25135 9.5 5.41663C9.5 5.5819 9.4441 5.72045 9.33229 5.83225C9.22049 5.94406 9.08194 5.99996 8.91667 5.99996ZM2.5 10.6666H7.75V9.49996H1.91667V10.0833C1.91667 10.2486 1.97257 10.3871 2.08438 10.4989C2.19618 10.6107 2.33472 10.6666 2.5 10.6666Z" fill="white"/>
</svg>
