<svg width="41" height="41" viewBox="0 0 41 41" fill="none" xmlns="http://www.w3.org/2000/svg">
<g id="Group 1158">
<circle id="Ellipse 12" cx="20.5" cy="20.5" r="20.5" fill="#FAF1D6"/>
<g id="pace">
<mask id="mask0_147_2744" style="mask-type:alpha" maskUnits="userSpaceOnUse" x="9" y="9" width="24" height="24">
<rect id="Bounding box" x="9.00012" y="9.00024" width="23" height="23" fill="#D9D9D9"/>
</mask>
<g mask="url(#mask0_147_2744)">
<path id="pace_2" d="M20.5001 30.0834C19.1744 30.0834 17.9286 29.8319 16.7626 29.3287C15.5967 28.8256 14.5824 28.1428 13.7199 27.2803C12.8574 26.4178 12.1746 25.4036 11.6715 24.2376C11.1684 23.0716 10.9168 21.8258 10.9168 20.5001C10.9168 19.1744 11.1684 17.9286 11.6715 16.7626C12.1746 15.5966 12.8574 14.5824 13.7199 13.7199C14.5824 12.8574 15.5967 12.1746 16.7626 11.6714C17.9286 11.1683 19.1744 10.9167 20.5001 10.9167C21.8258 10.9167 23.0717 11.1683 24.2376 11.6714C25.4036 12.1746 26.4179 12.8574 27.2804 13.7199C28.1429 14.5824 28.8257 15.5966 29.3288 16.7626C29.8319 17.9286 30.0835 19.1744 30.0835 20.5001C30.0835 20.9313 30.0595 21.3546 30.0116 21.7699C29.9637 22.1852 29.8838 22.5924 29.772 22.9917C29.5484 22.7362 29.2889 22.5206 28.9934 22.3449C28.6979 22.1692 28.3744 22.0494 28.0231 21.9855C28.071 21.7459 28.1069 21.5023 28.1309 21.2548C28.1548 21.0072 28.1668 20.7556 28.1668 20.5001C28.1668 18.3598 27.4241 16.547 25.9387 15.0615C24.4533 13.5761 22.6404 12.8334 20.5001 12.8334C18.3599 12.8334 16.547 13.5761 15.0616 15.0615C13.5762 16.547 12.8335 18.3598 12.8335 20.5001C12.8335 22.6404 13.5762 24.4532 15.0616 25.9386C16.547 27.424 18.3599 28.1667 20.5001 28.1667C21.3147 28.1667 22.0934 28.047 22.8361 27.8074C23.5788 27.5678 24.2616 27.2324 24.8845 26.8011C25.0762 27.0727 25.3118 27.3122 25.5913 27.5199C25.8708 27.7275 26.1703 27.8872 26.4897 27.999C25.6751 28.6539 24.7607 29.165 23.7465 29.5324C22.7323 29.8997 21.6501 30.0834 20.5001 30.0834ZM27.4481 26.2501C27.1126 26.2501 26.8291 26.1343 26.5975 25.9027C26.3659 25.6711 26.2501 25.3876 26.2501 25.0522C26.2501 24.7167 26.3659 24.4332 26.5975 24.2016C26.8291 23.97 27.1126 23.8542 27.4481 23.8542C27.7835 23.8542 28.067 23.97 28.2986 24.2016C28.5302 24.4332 28.646 24.7167 28.646 25.0522C28.646 25.3876 28.5302 25.6711 28.2986 25.9027C28.067 26.1343 27.7835 26.2501 27.4481 26.2501ZM23.6626 25.0042L19.5418 20.8834V15.7084H21.4585V20.1167L25.0043 23.6626L23.6626 25.0042Z" fill="#FFA412"/>
</g>
</g>
</g>
</svg>
