<svg width="41" height="41" viewBox="0 0 41 41" fill="none" xmlns="http://www.w3.org/2000/svg">
<g id="Group 1158">
<circle id="Ellipse 12" cx="20.5" cy="20.5" r="20.5" fill="#E3E9FF"/>
<g id="fact_check">
<mask id="mask0_147_2754" style="mask-type:alpha" maskUnits="userSpaceOnUse" x="9" y="9" width="23" height="23">
<rect id="Bounding box" x="9" y="9" width="23" height="23" fill="#D9D9D9"/>
</mask>
<g mask="url(#mask0_147_2754)">
<path id="fact_check_2" d="M12.8339 29.1248C12.3068 29.1248 11.8556 28.9371 11.4802 28.5617C11.1049 28.1864 10.9172 27.7352 10.9172 27.2081V13.7914C10.9172 13.2643 11.1049 12.8131 11.4802 12.4378C11.8556 12.0624 12.3068 11.8748 12.8339 11.8748H28.1672C28.6943 11.8748 29.1455 12.0624 29.5209 12.4378C29.8962 12.8131 30.0839 13.2643 30.0839 13.7914V27.2081C30.0839 27.7352 29.8962 28.1864 29.5209 28.5617C29.1455 28.9371 28.6943 29.1248 28.1672 29.1248H12.8339ZM12.8339 27.2081H28.1672V13.7914H12.8339V27.2081ZM17.6255 25.2914C17.8971 25.2914 18.1247 25.1996 18.3084 25.0159C18.492 24.8322 18.5839 24.6046 18.5839 24.3331C18.5839 24.0616 18.492 23.834 18.3084 23.6503C18.1247 23.4666 17.8971 23.3748 17.6255 23.3748H14.7505C14.479 23.3748 14.2514 23.4666 14.0677 23.6503C13.884 23.834 13.7922 24.0616 13.7922 24.3331C13.7922 24.6046 13.884 24.8322 14.0677 25.0159C14.2514 25.1996 14.479 25.2914 14.7505 25.2914H17.6255ZM22.9443 20.6675L22.2495 19.9727C22.0578 19.781 21.8342 19.6892 21.5787 19.6972C21.3231 19.7051 21.0995 19.805 20.9078 19.9966C20.7321 20.1883 20.6403 20.4119 20.6323 20.6675C20.6243 20.923 20.7162 21.1466 20.9078 21.3383L22.2735 22.7039C22.4651 22.8956 22.6887 22.9914 22.9443 22.9914C23.1998 22.9914 23.4235 22.8956 23.6151 22.7039L27.0172 19.3018C27.2089 19.1102 27.3047 18.8866 27.3047 18.631C27.3047 18.3755 27.2089 18.1518 27.0172 17.9602C26.8255 17.7685 26.5979 17.6727 26.3344 17.6727C26.0709 17.6727 25.8432 17.7685 25.6516 17.9602L22.9443 20.6675ZM17.6255 21.4581C17.8971 21.4581 18.1247 21.3662 18.3084 21.1826C18.492 20.9989 18.5839 20.7713 18.5839 20.4998C18.5839 20.2282 18.492 20.0006 18.3084 19.8169C18.1247 19.6333 17.8971 19.5414 17.6255 19.5414H14.7505C14.479 19.5414 14.2514 19.6333 14.0677 19.8169C13.884 20.0006 13.7922 20.2282 13.7922 20.4998C13.7922 20.7713 13.884 20.9989 14.0677 21.1826C14.2514 21.3662 14.479 21.4581 14.7505 21.4581H17.6255ZM17.6255 17.6248C17.8971 17.6248 18.1247 17.5329 18.3084 17.3492C18.492 17.1656 18.5839 16.9379 18.5839 16.6664C18.5839 16.3949 18.492 16.1673 18.3084 15.9836C18.1247 15.7999 17.8971 15.7081 17.6255 15.7081H14.7505C14.479 15.7081 14.2514 15.7999 14.0677 15.9836C13.884 16.1673 13.7922 16.3949 13.7922 16.6664C13.7922 16.9379 13.884 17.1656 14.0677 17.3492C14.2514 17.5329 14.479 17.6248 14.7505 17.6248H17.6255Z" fill="#6148F7"/>
</g>
</g>
</g>
</svg>
