<svg width="41" height="41" viewBox="0 0 41 41" fill="none" xmlns="http://www.w3.org/2000/svg">
<circle cx="20.5" cy="20.5" r="20.5" fill="#DFF6DC"/>
<mask id="mask0_441_9603" style="mask-type:alpha" maskUnits="userSpaceOnUse" x="9" y="9" width="23" height="23">
<rect x="9" y="9" width="23" height="23" fill="#D9D9D9"/>
</mask>
<g mask="url(#mask0_441_9603)">
<path d="M18.152 23.5188L26.2739 15.3969C26.4656 15.2052 26.6932 15.1094 26.9567 15.1094C27.2203 15.1094 27.4479 15.2052 27.6395 15.3969C27.8312 15.5885 27.927 15.8161 27.927 16.0797C27.927 16.3432 27.8312 16.5708 27.6395 16.7625L18.8229 25.5792C18.6312 25.7708 18.4076 25.8667 18.152 25.8667C17.8965 25.8667 17.6729 25.7708 17.4812 25.5792L13.3604 21.4583C13.1687 21.2667 13.0769 21.0391 13.0849 20.7755C13.0928 20.512 13.1927 20.2844 13.3843 20.0927C13.576 19.901 13.8036 19.8052 14.0672 19.8052C14.3307 19.8052 14.5583 19.901 14.75 20.0927L18.152 23.5188Z" fill="#73AE6E"/>
</g>
</svg>
