<svg width="41" height="41" viewBox="0 0 41 41" fill="none" xmlns="http://www.w3.org/2000/svg">
<circle cx="20.5" cy="20.5" r="20.5" fill="#FFE9E6"/>
<mask id="mask0_441_9613" style="mask-type:alpha" maskUnits="userSpaceOnUse" x="9" y="9" width="23" height="23">
<rect x="9" y="9" width="23" height="23" fill="#D9D9D9"/>
</mask>
<g mask="url(#mask0_441_9613)">
<path d="M20.5003 30.0837C19.1746 30.0837 17.9288 29.8321 16.7628 29.329C15.5968 28.8258 14.5826 28.143 13.7201 27.2805C12.8576 26.418 12.1748 25.4038 11.6716 24.2378C11.1685 23.0719 10.917 21.826 10.917 20.5003C10.917 19.1746 11.1685 17.9288 11.6716 16.7628C12.1748 15.5969 12.8576 14.5826 13.7201 13.7201C14.5826 12.8576 15.5968 12.1748 16.7628 11.6717C17.9288 11.1686 19.1746 10.917 20.5003 10.917C21.826 10.917 23.0718 11.1686 24.2378 11.6717C25.4038 12.1748 26.418 12.8576 27.2805 13.7201C28.143 14.5826 28.8258 15.5969 29.3289 16.7628C29.8321 17.9288 30.0836 19.1746 30.0836 20.5003C30.0836 21.826 29.8321 23.0719 29.3289 24.2378C28.8258 25.4038 28.143 26.418 27.2805 27.2805C26.418 28.143 25.4038 28.8258 24.2378 29.329C23.0718 29.8321 21.826 30.0837 20.5003 30.0837ZM20.5003 28.167C21.3628 28.167 22.1934 28.0272 22.992 27.7477C23.7906 27.4682 24.5253 27.0649 25.1961 26.5378L14.4628 15.8045C13.9357 16.4753 13.5324 17.21 13.2529 18.0087C12.9734 18.8073 12.8336 19.6378 12.8336 20.5003C12.8336 22.6406 13.5763 24.4535 15.0618 25.9389C16.5472 27.4243 18.36 28.167 20.5003 28.167ZM26.5378 25.1962C27.0649 24.5253 27.4682 23.7906 27.7477 22.992C28.0272 22.1934 28.167 21.3628 28.167 20.5003C28.167 18.36 27.4243 16.5472 25.9388 15.0618C24.4534 13.5764 22.6406 12.8337 20.5003 12.8337C19.6378 12.8337 18.8072 12.9734 18.0086 13.2529C17.21 13.5324 16.4753 13.9357 15.8045 14.4628L26.5378 25.1962Z" fill="#FF6A56"/>
</g>
</svg>
