<svg width="19" height="14" viewBox="0 0 19 14" fill="none" xmlns="http://www.w3.org/2000/svg">
<path id="Union" fill-rule="evenodd" clip-rule="evenodd" d="M14.6172 0.0758787C14.4993 0.124678 14.3888 0.197017 14.2929 0.292893L11.2929 3.29289C10.9024 3.68342 10.9024 4.31658 11.2929 4.70711C11.6834 5.09763 12.3166 5.09763 12.7071 4.70711L14 3.41421V9C14 9.55229 14.4477 10 15 10C15.5523 10 16 9.55228 16 9V3.41421L17.2929 4.70711C17.6834 5.09763 18.3166 5.09763 18.7071 4.7071C19.0976 4.31658 19.0976 3.68342 18.7071 3.29289L15.7078 0.293556L15.7071 0.292893C15.7049 0.290715 15.7027 0.288549 15.7005 0.286395C15.5061 0.0954649 15.2531 0 15 0M1 2C0.447715 2 0 2.44772 0 3C0 3.55228 0.447715 4 1 4H7C7.55228 4 8 3.55228 8 3C8 2.44772 7.55228 2 7 2H1ZM0 8C0 7.44772 0.447715 7 1 7H10C10.5523 7 11 7.44772 11 8C11 8.55229 10.5523 9 10 9H1C0.447715 9 0 8.55229 0 8ZM14 13C14 13.5523 13.5523 14 13 14L1 14C0.447715 14 0 13.5523 0 13C0 12.4477 0.447715 12 1 12L13 12C13.5523 12 14 12.4477 14 13Z" fill="#333333"/>
</svg>
