<svg width="41" height="41" viewBox="0 0 41 41" fill="none" xmlns="http://www.w3.org/2000/svg">
<circle cx="20.5" cy="20.5" r="20.5" fill="#FAF1D6"/>
<mask id="mask0_23_6067" style="mask-type:alpha" maskUnits="userSpaceOnUse" x="9" y="9" width="24" height="24">
<rect x="9" y="9.00586" width="23.0035" height="23" fill="#D9D9D9"/>
</mask>
<g mask="url(#mask0_23_6067)">
<path d="M25.2937 30.0879C23.9678 30.0879 22.8376 29.6207 21.9031 28.6863C20.9686 27.752 20.5013 26.6219 20.5013 25.2962C20.5013 23.9705 20.9686 22.8405 21.9031 21.9061C22.8376 20.9717 23.9678 20.5046 25.2937 20.5046C26.6196 20.5046 27.7498 20.9717 28.6843 21.9061C29.6188 22.8405 30.0861 23.9705 30.0861 25.2962C30.0861 26.6219 29.6188 27.752 28.6843 28.6863C27.7498 29.6207 26.6196 30.0879 25.2937 30.0879ZM26.8992 27.5723L27.5701 26.9014L25.7729 25.1046V22.4212H24.8145V25.4879L26.8992 27.5723ZM13.792 29.1296C13.2648 29.1296 12.8135 28.9419 12.4381 28.5665C12.0627 28.1912 11.875 27.74 11.875 27.2129V13.7962C11.875 13.2691 12.0627 12.8179 12.4381 12.4426C12.8135 12.0672 13.2648 11.8796 13.792 11.8796H17.7936C17.9693 11.3205 18.3128 10.8613 18.824 10.502C19.3352 10.1426 19.8943 9.96289 20.5013 9.96289C21.1403 9.96289 21.7114 10.1426 22.2146 10.502C22.7178 10.8613 23.0573 11.3205 23.233 11.8796H27.2107C27.7378 11.8796 28.1891 12.0672 28.5645 12.4426C28.9399 12.8179 29.1276 13.2691 29.1276 13.7962V19.7858C28.8401 19.5782 28.5366 19.4025 28.2171 19.2587C27.8976 19.115 27.5621 18.9872 27.2107 18.8754V13.7962H25.2937V16.6712H15.7089V13.7962H13.792V27.2129H18.8719C18.9837 27.5643 19.1115 27.8997 19.2553 28.2191C19.3991 28.5386 19.5748 28.8421 19.7825 29.1296H13.792ZM20.5013 13.7962C20.7729 13.7962 21.0005 13.7044 21.1842 13.5207C21.3679 13.337 21.4598 13.1094 21.4598 12.8379C21.4598 12.5664 21.3679 12.3388 21.1842 12.1551C21.0005 11.9714 20.7729 11.8796 20.5013 11.8796C20.2297 11.8796 20.0021 11.9714 19.8184 12.1551C19.6347 12.3388 19.5428 12.5664 19.5428 12.8379C19.5428 13.1094 19.6347 13.337 19.8184 13.5207C20.0021 13.7044 20.2297 13.7962 20.5013 13.7962Z" fill="#FFA412"/>
</g>
</svg>
